<mxfile host="app.diagrams.net" modified="2022-03-28T02:32:37.935Z" agent="5.0 (Windows NT 10.0; Win64; x64) AppleWebKit/537.36 (KHTML, like Gecko) Chrome/99.0.4844.82 Safari/537.36" etag="p08ObsNdCJgymgP66x2h" version="17.2.4" type="github">
  <diagram id="_cvDZ2DEq5BDZDUtDMIE" name="第 1 页">
    <mxGraphModel dx="1422" dy="772" grid="1" gridSize="10" guides="1" tooltips="1" connect="1" arrows="1" fold="1" page="0" pageScale="1" pageWidth="827" pageHeight="1169" math="0" shadow="0">
      <root>
        <mxCell id="0" />
        <mxCell id="1" parent="0" />
        <mxCell id="yNtYfz_LsPqnev4Xcj9q-3" value="" style="edgeStyle=orthogonalEdgeStyle;rounded=0;orthogonalLoop=1;jettySize=auto;html=1;" edge="1" parent="1" source="yNtYfz_LsPqnev4Xcj9q-1" target="yNtYfz_LsPqnev4Xcj9q-2">
          <mxGeometry relative="1" as="geometry" />
        </mxCell>
        <mxCell id="yNtYfz_LsPqnev4Xcj9q-1" value="" style="rounded=1;whiteSpace=wrap;html=1;" vertex="1" parent="1">
          <mxGeometry x="190" y="250" width="120" height="60" as="geometry" />
        </mxCell>
        <mxCell id="yNtYfz_LsPqnev4Xcj9q-5" value="" style="edgeStyle=orthogonalEdgeStyle;rounded=0;orthogonalLoop=1;jettySize=auto;html=1;" edge="1" parent="1" source="yNtYfz_LsPqnev4Xcj9q-2" target="yNtYfz_LsPqnev4Xcj9q-4">
          <mxGeometry relative="1" as="geometry" />
        </mxCell>
        <mxCell id="yNtYfz_LsPqnev4Xcj9q-2" value="" style="ellipse;whiteSpace=wrap;html=1;rounded=1;" vertex="1" parent="1">
          <mxGeometry x="390" y="250" width="120" height="60" as="geometry" />
        </mxCell>
        <mxCell id="yNtYfz_LsPqnev4Xcj9q-7" value="" style="edgeStyle=orthogonalEdgeStyle;rounded=0;orthogonalLoop=1;jettySize=auto;html=1;" edge="1" parent="1" source="yNtYfz_LsPqnev4Xcj9q-4" target="yNtYfz_LsPqnev4Xcj9q-6">
          <mxGeometry relative="1" as="geometry" />
        </mxCell>
        <mxCell id="yNtYfz_LsPqnev4Xcj9q-4" value="" style="rounded=1;whiteSpace=wrap;html=1;" vertex="1" parent="1">
          <mxGeometry x="390" y="390" width="120" height="60" as="geometry" />
        </mxCell>
        <mxCell id="yNtYfz_LsPqnev4Xcj9q-9" value="" style="edgeStyle=orthogonalEdgeStyle;rounded=0;orthogonalLoop=1;jettySize=auto;html=1;" edge="1" parent="1" source="yNtYfz_LsPqnev4Xcj9q-6" target="yNtYfz_LsPqnev4Xcj9q-8">
          <mxGeometry relative="1" as="geometry" />
        </mxCell>
        <mxCell id="yNtYfz_LsPqnev4Xcj9q-6" value="消费" style="shape=process;whiteSpace=wrap;html=1;backgroundOutline=1;rounded=1;" vertex="1" parent="1">
          <mxGeometry x="590" y="390" width="120" height="60" as="geometry" />
        </mxCell>
        <mxCell id="yNtYfz_LsPqnev4Xcj9q-8" value="" style="rhombus;whiteSpace=wrap;html=1;rounded=1;" vertex="1" parent="1">
          <mxGeometry x="610" y="520" width="80" height="80" as="geometry" />
        </mxCell>
      </root>
    </mxGraphModel>
  </diagram>
</mxfile>
